<?xml version="1.0" encoding="UTF-8"?>
<svg id="Calque_2" data-name="Calque 2" xmlns="http://www.w3.org/2000/svg" viewBox="0 0 87.23 83.54">
  <defs>
    <style>
      .cls-1 {
        fill: #ff7f32;
      }
    </style>
  </defs>
  <g id="OBJECTS">
    <path class="cls-1" d="M86.87,31.51c-1.03-3.2-3.21-5.36-15.17-1.5-8.88,2.87-20.64,8.25-25.7,12.15,2.15-6,3.66-18.86,3.66-28.19,0-12.57-2.73-13.98-6.09-13.98s-6.09,1.41-6.09,13.98c0,9.3,1.5,22.11,3.64,28.13-5.05-3.93-16.73-9.38-25.56-12.31-11.93-3.96-14.12-1.81-15.18,1.38s-.58,6.23,11.35,10.18c8.86,2.94,21.53,5.56,27.9,5.4-5.29,3.57-14.1,13.04-19.62,20.56-7.43,10.13-6.07,12.88-3.35,14.87s5.74,2.47,13.18-7.67c5.52-7.52,11.91-18.77,13.72-24.89,1.77,6.13,8.07,17.43,13.53,24.99,7.36,10.19,10.39,9.74,13.12,7.77,2.73-1.97,4.11-4.71-3.24-14.9-5.46-7.56-14.2-17.1-19.46-20.71,6.38.2,19.07-2.32,27.94-5.19,11.96-3.87,12.46-6.89,11.42-10.1Z"/>
  </g>
</svg>