<?xml version="1.0" encoding="UTF-8"?>
<svg id="Calque_2" data-name="Calque 2" xmlns="http://www.w3.org/2000/svg" viewBox="0 0 83.27 83.27">
  <defs>
    <style>
      .cls-1 {
        fill: #fdcb6e;
      }
    </style>
  </defs>
  <g id="OBJECTS">
    <g>
      <g>
        <path class="cls-1" d="M48.23,6.59c0,3.64-2.95,6.59-6.59,6.59s-6.59-2.95-6.59-6.59,2.95-6.59,6.59-6.59,6.59,2.95,6.59,6.59Z"/>
        <circle class="cls-1" cx="41.64" cy="76.68" r="6.59"/>
      </g>
      <g>
        <path class="cls-1" d="M48.23,6.59c0,3.64-2.95,6.59-6.59,6.59s-6.59-2.95-6.59-6.59,2.95-6.59,6.59-6.59,6.59,2.95,6.59,6.59Z"/>
        <circle class="cls-1" cx="41.64" cy="76.68" r="6.59"/>
      </g>
      <g>
        <path class="cls-1" d="M76.68,48.23c-3.64,0-6.59-2.95-6.59-6.59s2.95-6.59,6.59-6.59,6.59,2.95,6.59,6.59-2.95,6.59-6.59,6.59Z"/>
        <path class="cls-1" d="M6.59,48.23c-3.64,0-6.59-2.95-6.59-6.59s2.95-6.59,6.59-6.59,6.59,2.95,6.59,6.59-2.95,6.59-6.59,6.59Z"/>
      </g>
      <g>
        <circle class="cls-1" cx="66.42" cy="16.86" r="6.59"/>
        <path class="cls-1" d="M21.52,71.08c-2.57,2.57-6.75,2.57-9.32,0-2.57-2.57-2.57-6.75,0-9.32,2.57-2.57,6.75-2.57,9.32,0,2.57,2.57,2.57,6.75,0,9.32Z"/>
      </g>
      <g>
        <circle class="cls-1" cx="66.42" cy="16.86" r="6.59"/>
        <path class="cls-1" d="M21.52,71.08c-2.57,2.57-6.75,2.57-9.32,0-2.57-2.57-2.57-6.75,0-9.32,2.57-2.57,6.75-2.57,9.32,0,2.57,2.57,2.57,6.75,0,9.32Z"/>
      </g>
      <g>
        <circle class="cls-1" cx="66.42" cy="66.42" r="6.59"/>
        <path class="cls-1" d="M12.2,21.52c-2.57-2.57-2.57-6.75,0-9.32,2.57-2.57,6.75-2.57,9.32,0,2.57,2.57,2.57,6.75,0,9.32-2.57,2.57-6.75,2.57-9.32,0Z"/>
      </g>
    </g>
  </g>
</svg>